# xmcd CD database file
#
# Track frame offsets:
#	150
#	14535
#	28292
#	51598
#	66612
#	85989
#	98735
#	111170
#	124266
#	133813
#	150472
#	168012
#	178888
#	192609
#
# Disc length: 2863 seconds
#
# Revision: 0
# Processed by: cddbd v1.5.2PL0 Copyright (c) Steve Scherf et al.
# Submitted via: CDex 1.51
#
DISCID=d00b2d0e
DTITLE=Chet Baker - The Collection
DYEAR=2006
DGENRE=Jazz
TTITLE0=Sweet Lorraine
TTITLE1=But Not For Me
TTITLE2=C.T.A.
TTITLE3=I Fall In Love Too Easily
TTITLE4=Love Nest
TTITLE5=The Thrill Is Gone
TTITLE6=Time After Time
TTITLE7=All The Things You Are
TTITLE8=Embraceable You
TTITLE9=Let's Get Lost
TTITLE10=Stella By Starlight
TTITLE11=Like Someone In Love
TTITLE12=That Old Feeling
TTITLE13=Lush Life
EXTD=YEAR: 2006
EXTT0=
EXTT1=
EXTT2=
EXTT3=
EXTT4=
EXTT5=
EXTT6=
EXTT7=
EXTT8=
EXTT9=
EXTT10=
EXTT11=
EXTT12=
EXTT13=
PLAYORDER=
